PathFileType	4	(X/Y/Z)	Patient4_TMGait_0pt4_03_left_15.trc.trc
DataRate	CameraRate	NumFrames	NumMarkers	Units	OrigDataRate	OrigDataStartFrame	OrigNumFrames
71.794871794872	71.794871794872	5	33	mm	71.794871794872	1	       141
Frame#	Time	Sacral			L.Shoulder			Chest			R.Shoulder			Neck			R.ASIS			L.ASIS			R.Thigh.Superior			R.Thigh.Lateral			R.Thigh.Inferior			R.Patella			L.Thigh.Superior			L.Thigh.Lateral			L.Thigh.Inferior			L.Patella			L.Shank.Superior			L.Shank.Lateral			L.Shank.Inferior			R.Shank.Superior			R.Shank.Lateral			R.Shank.Inferior			R.Heel			R.Midfoot.Superior			R.Midfoot.Lateral			R.Toe			L.Heel			L.Midfoot.Lateral			L.Midfoot.Superior			L.Toe			L.Elbow			L.Wrist			R.Elbow			R.Wrist			
		X1	Y1	Z1	X2	Y2	Z2	X3	Y3	Z3	X4	Y4	Z4	X5	Y5	Z5	X6	Y6	Z6	X7	Y7	Z7	X8	Y8	Z8	X9	Y9	Z9	X10	Y10	Z10	X11	Y11	Z11	X12	Y12	Z12	X13	Y13	Z13	X14	Y14	Z14	X15	Y15	Z15	X16	Y16	Z16	X17	Y17	Z17	X18	Y18	Z18	X19	Y19	Z19	X20	Y20	Z20	X21	Y21	Z21	X22	Y22	Z22	X23	Y23	Z23	X24	Y24	Z24	X25	Y25	Z25	X26	Y26	Z26	X27	Y27	Z27	X28	Y28	Z28	X29	Y29	Z29	X30	Y30	Z30	X31	Y31	Z31	X32	Y32	Z32	X33	Y33	Z33	

1	19.370000000000	841.035246801734	1002.621072564230	520.389173834479	1015.011620160758	1435.242300893571	335.708614231955	1126.459933426824	1365.730776873097	490.631104740655	1051.538649941084	1435.224298075369	670.144512126340	1005.936959798218	1494.622846327539	494.100480490386	1076.351722472099	941.304731932302	628.708513476303	1051.809782156985	964.185555848624	355.449466753036	1117.637377217967	740.687873980437	596.426950044258	1038.734281646281	629.907634529539	656.584185102905	1114.523138003051	579.463320809655	573.808071043496	1114.828612080923	490.067898336257	578.287603935647	1136.207344681885	779.526402819293	375.087255843342	1088.174413456866	653.352979601366	294.708314224827	1198.110416048688	594.326834767262	345.761624188757	1213.071495944668	506.835640735231	337.037615663105	1149.973174923729	436.752251426197	331.979937451799	1008.716549763250	385.757500952886	289.260199564724	1008.636620607189	253.991408060665	341.366509805899	1082.408126794212	401.436649528396	585.033436385576	1008.363696414628	299.911078266775	646.663082307046	1043.965664778146	204.175521381672	581.083441454344	904.652474311663	43.047214662113	549.706823498027	1074.482280229309	96.287644849946	589.072956400083	986.898287774311	37.128501981576	626.758947829413	1195.263911105127	44.364556508627	619.198084111695	824.397752824787	176.649937539923	386.717686778868	880.427868372530	136.502570162190	302.282580512255	986.630362469127	149.470740399158	319.268092852287	1068.567313266152	42.349320576018	282.807083020387	965.807494105742	1087.694229509791	214.104811380249	1070.733641636479	846.436631616107	188.515419108657	1070.043522307632	1089.344368512323	801.443978819773	1249.442778413565	902.382029517534	774.885536969028	
2	19.383928571429	840.262766291336	1003.720060882918	523.177914455979	1013.800100980612	1435.438822396796	336.780824563698	1126.749837340555	1365.618500248484	490.461948907651	1054.295418790925	1435.679618285073	670.687169447633	1006.644427305335	1495.059382690295	494.885365789114	1076.066811026528	941.123699110460	628.985580786677	1048.809587254332	964.666346216859	356.339953415542	1114.905610462429	740.067293832997	596.077551777732	1035.537224541656	629.963379842983	657.195804611664	1110.071082499311	578.854499338917	573.866144624434	1109.629508286633	489.754807878891	578.545469022086	1134.293120834530	781.751943697985	375.496006480464	1087.097179184839	655.273799209131	295.155413902861	1197.452420959440	597.189949699200	346.133470112971	1213.818277514746	511.012885733767	336.929092572329	1154.329319721916	439.889362715198	331.038492000060	1016.791455599416	380.959364895313	289.518560466126	1026.156629580399	249.479323360864	339.173042149707	1077.032550879242	401.261186891840	585.337729402093	1002.913882584127	299.801381682089	646.898436916851	1038.278357963460	204.026253101320	581.182699949332	898.785497207660	43.011192061777	549.776650575431	1068.534785903405	96.243415880717	589.115520497601	980.980852654368	37.122198575190	626.817034571426	1189.318083087769	44.278861726218	619.265119738130	850.119632246172	159.829300109181	386.281571186997	906.313304326886	125.033703491070	300.178394502800	1010.890880407316	144.847443650539	315.635507127742	1098.383840942670	44.940888909580	275.730597782329	959.970402398126	1088.564649049989	215.666877886495	1053.771803177492	844.155452134312	187.789079145235	1074.332591959914	1090.577186602435	802.999029886076	1258.241487998688	909.706849486607	771.827256537278	
3	19.397857142857	839.495483334273	1004.801321580932	525.904836253187	1012.644872972255	1435.616017814213	337.809979435875	1127.058236713464	1365.465626419958	490.264041175712	1057.037899739477	1436.080202613944	671.190813093703	1007.375327667358	1495.462914120722	495.633389080441	1075.770696355162	940.936194265162	629.233624136155	1045.870585958700	965.114646285569	357.174780185296	1112.177198380161	739.438743006560	595.746044170339	1032.338451936400	630.007628387528	657.800046395396	1105.627100611864	578.242663086685	573.932264713400	1104.443634633324	489.441855715254	578.813283713026	1132.262089490427	783.804016474857	375.923930319582	1085.906921306064	657.090542752019	295.556578322187	1196.560698719207	599.863903279294	346.643707774912	1214.366479093990	515.075044416655	336.910261371282	1158.521936186866	442.973422870781	330.177767769875	1024.957916974114	376.110322287677	289.650543534826	1043.734595442380	245.121818189921	337.000710474021	1071.676696164986	401.081674649682	585.646233572431	997.481444668443	299.688456249922	647.136972965211	1032.605863575821	203.880319867296	581.288556473668	892.933380422359	42.973780298248	549.850112672372	1062.606447371615	96.196552031610	589.153813507719	975.080249917724	37.114357091455	626.876160201242	1183.391494575329	44.194336357464	619.331819834885	876.075619926944	143.276667909926	385.640987737868	932.480667804914	113.826394633647	297.981241846584	1035.280477948058	140.481067611632	312.061571793174	1128.277188923211	47.898976717265	268.916282630811	954.085540944781	1089.459656268010	217.171624621887	1036.995380433297	842.030107599827	187.173148169419	1078.578838722598	1091.753058074235	804.493932129085	1266.980558076621	917.083468800068	768.666027770797	
4	19.411785714286	838.742070316985	1005.845137886613	528.486426927417	1011.601916212160	1435.758283933164	338.742742832567	1127.395622627598	1365.244146494681	490.008969532723	1059.728021510561	1436.385548949721	671.610536636001	1008.142770877948	1495.807531435608	496.297402958551	1075.452909461819	940.740285858182	629.424478573785	1043.062455254817	965.506739326594	357.897993882807	1109.470866292685	738.800464532211	595.443642663554	1029.150132349464	630.033152137374	658.377371784994	1101.221256756193	577.629972193468	574.006006689967	1099.307170432303	489.130142851891	579.086334510472	1130.056250985042	785.543883009587	376.378743224382	1084.536974104907	658.709840770829	295.880897565921	1195.291840541190	602.187288979525	347.362077315665	1214.565168394573	518.893878448673	337.046751231446	1162.391469273311	445.939646624484	329.463834304481	1033.191854607185	371.256299726255	289.570498784079	1061.203470461445	241.102965005342	334.891160792577	1066.378511750123	400.895772945914	585.951856804650	992.107032682184	299.573965016215	647.376575404527	1026.988977571894	203.743045246566	581.402904495236	887.138529602358	42.935150582641	549.930132221509	1056.743530164428	96.147834247214	589.186961098888	969.239721824029	37.103664756186	626.934455115117	1177.529055143494	44.112414446465	619.397310534293	902.116660301863	127.415771017282	384.655302197653	958.829706944212	103.225249501953	295.663682726887	1059.608391854198	136.624827337646	308.644376059863	1157.953409499814	51.456702920453	262.681771968351	948.166860943869	1090.394537307059	218.568351206581	1020.690862113289	840.199236115861	186.769955217455	1082.726206671631	1092.816462519609	805.839575239296	1275.544604993817	924.528861065854	765.318691356360	
5	19.425714285714	838.006542221832	1006.836836958837	530.854233207985	1010.716595737478	1435.852783249835	339.531198855782	1127.769932240752	1364.932291211321	489.670176223447	1062.335623537398	1436.567013920359	671.906019559474	1008.958341207098	1496.074175896700	496.834295192257	1075.101222405156	940.533086191093	629.535087321027	1040.430454154890	965.822913424909	358.468369421419	1106.796522870862	738.148981260450	595.179866148709	1025.971186982653	630.034244849059	658.910325241759	1096.866735592821	577.016345804066	574.084661347206	1094.231560029964	488.817836583963	579.354821816002	1127.631338634612	786.873495237421	376.869131555613	1082.944290219108	660.071410156934	296.097381271771	1193.548058430481	604.049136196042	348.322092061696	1214.310242605671	522.383771021541	337.383607006595	1165.826033500724	448.748461129240	328.951562876815	1041.488388698520	366.465430324293	289.202643583776	1078.412176970148	237.596027597544	332.891497278548	1061.153886894872	400.702112087898	586.246057213112	986.806675400895	299.460072186469	647.614051582162	1021.445000509857	203.617898232043	581.525028212615	881.417313431276	42.895367098565	550.017577387393	1050.964800761632	96.098082136771	589.214333159977	963.476279421880	37.089093725857	626.989946571532	1171.747841663719	44.034500615055	619.461119860054	928.074348905321	112.638881066413	383.212178357192	985.260074811920	93.539975072009	293.223790927905	1083.704865552624	133.501750463731	305.494471822642	1187.166137189861	55.797469586641	257.361161633551	942.220270309118	1091.384100602826	219.822466135663	1005.063341057054	838.762417826516	186.664928215258	1086.745470002524	1093.722402082695	806.951192719418	1283.856933228598	932.082346508857	761.703978537766	
